<svg id="Capa_1" height="64" viewBox="0 0 512 512" width="64" xmlns="http://www.w3.org/2000/svg">
    <g>
        <path fill="#f5f5f5" d="m106 512h300c8.284 0 15-6.716 15-15s-6.716-15-15-15c-24.813 0-45-20.187-45-45v-181c0-41.355-33.645-75-75-75h-15v-6.372c34.341-22.484 47.214-67.741 28.46-105.248l-30-61c-2.522-5.13-7.743-8.38-13.46-8.38s-10.938 3.25-13.46 8.38l-29.956 60.912c-18.794 37.588-5.925 82.852 28.416 105.336v6.372h-75c-8.284 0-15 6.716-15 15v241c0 24.813-20.187 45-45 45-8.284 0-15 6.716-15 15s6.716 15 15 15zm225-256v90c0 8.271-6.729 15-15 15s-15-6.729-15-15v-60c0-24.813-20.187-45-45-45-8.271 0-15-6.729-15-15v-15h45c24.813 0 45 20.187 45 45zm-91.54-173.38 16.54-33.631 16.584 33.719c11.659 23.319 4.123 51.302-16.584 65.871-20.706-14.57-28.239-42.56-16.54-65.959zm-58.46 354.38v-226h30v15c0 24.813 20.187 45 45 45 8.271 0 15 6.729 15 15v60c0 24.813 20.187 45 45 45 5.259 0 10.305-.915 15-2.58v48.58c0 16.869 5.6 32.457 15.035 45h-180.07c9.435-12.543 15.035-28.131 15.035-45z"/>
    </g>
</svg>
