<svg id="Layer_1" height="64" viewBox="0 0 512 512" width="64" xmlns="http://www.w3.org/2000/svg">
    <g> 
        <g>
            <path fill="#f5f5f5" d="m481.115 30.882c-41.144-41.142-108.087-41.142-149.23 0-1.155 1.155-2.333 2.393-3.5 3.678-3.713 4.088-3.409 10.412.679 14.126 4.087 3.714 10.412 3.41 14.126-.679.953-1.049 1.907-2.053 2.838-2.982 2.961-2.961 6.093-5.645 9.354-8.08l12.888 22.321c-1.442 1.194-2.846 2.457-4.196 3.806-11.33 11.33-17.57 26.396-17.57 42.423s6.24 31.093 17.571 42.422c4.976 4.977 4.976 13.072-.015 18.062l-7.08 7.08-24.199-24.198c-4.624-7.843-7.956-16.311-9.881-25.202-1.168-5.398-6.487-8.828-11.889-7.658-5.397 1.168-8.827 6.491-7.658 11.889 1.913 8.843 4.942 17.352 9.03 25.387l-306.511 306.494c-3.787 3.787-5.872 8.831-5.872 14.204s2.085 10.417 5.872 14.202l17.926 17.926c3.786 3.787 8.83 5.872 14.203 5.872s10.417-2.085 14.202-5.871l326.014-325.998c12.772-12.772 12.772-33.557-.001-46.331-7.553-7.553-11.713-17.597-11.713-28.28 0-10.685 4.159-20.728 11.712-28.28 15.598-15.593 40.972-15.595 56.567 0 8.118 8.117 12.339 19.406 11.582 30.971-.754 11.507-6.383 22.094-15.443 29.048-1.592 1.221-3.052 2.217-4.317 2.949-15.616 8.974-21.021 28.979-12.021 44.642 2.843 4.888 5.707 9.913 8.478 14.773 2.264 3.972 4.527 7.944 6.812 11.9 5.539 9.591 17.849 12.888 27.438 7.351l21.956-12.676c9.591-5.537 12.89-17.845 7.353-27.438l-1.579-2.733c17.12-18.913 26.632-43.153 26.952-69.078.355-28.771-10.611-55.777-30.878-76.042zm-156.325 138.271 18.047 18.047-21.212 21.211-18.047-18.047zm-52.663 88.753-18.048-18.047 35.355-35.353 18.047 18.047zm-35.355 35.354-18.048-18.047 21.213-21.212 18.048 18.047zm-49.497 49.495-18.048-18.047 35.355-35.353 18.048 18.047zm-35.356 35.354-18.048-18.047 21.213-21.212 18.048 18.047zm-49.497 49.495-18.048-18.047 35.355-35.353 18.048 18.047zm-35.355 35.354-18.048-18.048 21.213-21.212 18.048 18.047zm-29.009 29.008c-.024.011-.089.011-.117-.005l-17.932-17.931c-.012-.024-.012-.087.004-.115l14.863-14.863 18.049 18.048zm447.923-418.094-24.957 6.687c-2.934-6.444-6.996-12.384-12.1-17.487-1.341-1.341-2.735-2.595-4.167-3.782l12.889-22.323c3.251 2.429 6.375 5.107 9.327 8.059 8.371 8.369 14.771 18.166 19.008 28.846zm-100.383-24.593-12.888-22.32c21.528-9.23 46.086-9.225 67.611.014l-12.886 22.318c-13.466-4.991-28.368-4.995-41.837-.012zm83.668 139.573-21.961 12.679c-.026.01-.089-.013-.112-.034-2.266-3.924-4.511-7.863-6.756-11.803-2.792-4.898-5.678-9.962-8.539-14.881-3.479-6.055-1.384-13.811 4.69-17.302 1.496-.865 3.075-1.897 4.711-3.076l21.4 21.4c.174 1.245.577 2.473 1.236 3.614l5.366 9.291c.005.026-.012.088-.035.112zm4.383-30.353-18.235-18.235c6.329-8.943 10.174-19.565 10.908-30.772.211-3.227.161-6.44-.136-9.611l24.928-6.679c.631 4.417.936 8.916.88 13.473-.238 19.172-6.688 37.188-18.345 51.824z"/>
            <path fill="#f5f5f5" d="m314.226 90.786c5.522 0 10-4.478 10-10s-4.478-10-10-10h-.007c-5.522 0-9.996 4.478-9.996 10s4.481 10 10.003 10z"/>
        </g>
    </g>
</svg>
